#!OML:ASF H:\Dans Jumps\Project 1\Capture day 1\Session 1\subject.ASF
:FULLY-SPECIFIED
:DEGREES
332
root 0.248582 20.5816 -7.6689 1.37308 5.91124 1.07349
lowerback 2.31063 0.53235 -0.426973
upperback 4.28302 0.659031 2.36283
thorax 3.07611 0.276989 2.67532
lowerneck -5.59594 -1.55646 -2.80232
upperneck 34.8727 -1.8597 0.677384
head 12.494 -1.04657 0.54918
rclavicle -1.25234e-014 -1.51076e-014
rhumerus 0.166342 3.83948 -84.1103
rradius 55.1744
rwrist 18.702
rhand -22.7776 -17.4086
rfingers 7.12502
rthumb 3.65788 -47.357
lclavicle -1.25234e-014 -1.51076e-014
lhumerus 5.92062 -32.7032 73.8429
lradius 66.3629
lwrist 40.5682
lhand -24.1621 -12.4545
lfingers 7.12502
lthumb 2.32082 17.5126
rfemur -18.5775 -6.57578 16.0039
rtibia 26.1273
rfoot 19.2518 -6.58704
rtoes 20.9884
lfemur -16.6087 6.61008 -20.8005
ltibia 19.9383
lfoot 24.7091 -4.67672
ltoes 11.0287
333
root 0.249378 20.2719 -7.54174 1.10957 6.01256 1.06175
lowerback 1.82679 0.475627 -0.440075
upperback 4.0793 0.581729 2.39495
thorax 3.14071 0.238097 2.71867
lowerneck -5.58677 -1.53258 -2.95165
upperneck 35.0777 -1.80651 0.702071
head 12.5813 -1.03985 0.591806
rclavicle 2.127e-014 -2.22639e-014
rhumerus -0.566459 3.99132 -83.9562
rradius 55.4489
rwrist 19.0032
rhand -22.6822 -17.3234
rfingers 7.12502
rthumb 3.75002 -47.2702
lclavicle 2.127e-014 -2.22639e-014
lhumerus 5.10395 -32.5579 73.3389
lradius 66.9643
lwrist 40.0474
lhand -23.7245 -12.3618
lfingers 7.12502
lthumb 2.74345 17.6003
rfemur -17.8881 -6.34611 15.9071
rtibia 26.0574
rfoot 19.7339 -6.6224
rtoes 21.9753
lfemur -15.9651 6.48529 -20.7604
ltibia 19.6725
lfoot 25.361 -4.43685
ltoes 11.849
334
root 0.2491 19.9491 -7.41563 0.870329 6.11771 1.0363
lowerback 1.3504 0.396418 -0.478922
upperback 3.8398 0.474603 2.45177
thorax 3.16576 0.183751 2.8005
lowerneck -5.58321 -1.48484 -3.13036
upperneck 35.2693 -1.70843 0.712164
head 12.6636 -1.01932 0.639456
rclavicle 5.56597e-015 -1.82882e-014
rhumerus -1.35086 4.19095 -83.7892
rradius 55.8017
rwrist 19.2293
rhand -22.5668 -17.2275
rfingers 7.12502
rthumb 3.86147 -47.1723
lclavicle 5.56597e-015 -1.82882e-014
lhumerus 4.18821 -32.2601 72.8862
lradius 67.6023
lwrist 39.4731
lhand -23.3575 -12.32
lfingers 7.12502
lthumb 3.09785 17.6373
rfemur -17.301 -6.13262 15.8552
rtibia 26.179
rfoot 19.7933 -5.73975
rtoes 27.0433
lfemur -15.4633 6.29098 -20.6948
ltibia 19.6906
lfoot 26.1123 -4.57604
ltoes 17.7551
335
root 0.247481 19.6091 -7.29197 0.657369 6.21068 0.996278
lowerback 0.894417 0.304383 -0.539279
upperback 3.5709 0.350995 2.52624
thorax 3.1503 0.120987 2.91103
lowerneck -5.60074 -1.41971 -3.3217
upperneck 35.4315 -1.58006 0.71614
head 12.7373 -0.988281 0.690552
rclavicle 1.74931e-014 -1.11319e-014
rhumerus -2.16306 4.41361 -83.6182
rradius 56.2107
rwrist 19.3899
rhand -22.4498 -17.159
rfingers 7.12502
rthumb 3.97442 -47.1017
lclavicle 1.74931e-014 -1.11319e-014
lhumerus 3.20551 -31.8154 72.4583
lradius 68.2604
lwrist 38.8933
lhand -23.0767 -12.3196
lfingers 7.12502
lthumb 3.36903 17.6335
rfemur -16.8189 -5.98747 15.8649
rtibia 26.5962
rfoot 18.8873 -4.29723
rtoes 29.9155
lfemur -15.1271 6.13546 -20.6174
ltibia 20.1077
lfoot 25.5191 1.2076
ltoes 30.5291
336
root 0.244189 19.2543 -7.17377 0.470685 6.2996 0.937901
lowerback 0.483408 0.198656 -0.612709
upperback 3.26112 0.210407 2.6144
thorax 3.06899 0.0503882 3.04114
lowerneck -5.57328 -1.33872 -3.52451
upperneck 35.5274 -1.43056 0.727164
head 12.7724 -0.948881 0.749165
rclavicle 4.77083e-015 7.95139e-016
rhumerus -3.01663 4.62909 -83.4615
rradius 56.6472
rwrist 19.5277
rhand -22.3464 -17.0902
rfingers 7.12502
rthumb 4.07431 -47.031
lclavicle 4.77083e-015 7.95139e-016
lhumerus 2.13081 -31.2254 72.0659
lradius 68.9222
lwrist 38.3335
lhand -22.875 -12.3647
lfingers 7.12502
lthumb 3.56376 17.5852
rfemur -16.4353 -5.95274 15.9415
rtibia 27.4053
rfoot 16.7268 -2.11003
rtoes 31.6908
lfemur -14.9454 6.07898 -20.5256
ltibia 21.0371
lfoot 21.2878 8.61127
ltoes 37.5495
337
root 0.239027 18.8928 -7.06452 0.297113 6.38566 0.8674
lowerback 0.154861 0.0874758 -0.695265
upperback 2.91762 0.0643856 2.70517
thorax 2.90772 -0.0216774 3.17753
lowerneck -5.48966 -1.24872 -3.7197
upperneck 35.5573 -1.27656 0.751683
head 12.7665 -0.904842 0.812261
rclavicle 1.86858e-014 2.3059e-014
rhumerus -3.89528 4.78413 -83.3389
rradius 57.0701
rwrist 19.7012
rhand -22.2842 -17.0318
rfingers 7.12502
rthumb 4.13436 -46.9714
lclavicle 1.86858e-014 2.3059e-014
lhumerus 0.991057 -30.5074 71.7045
lradius 69.5496
lwrist 37.8021
lhand -22.7631 -12.4409
lfingers 7.12502
lthumb 3.67184 17.5072
rfemur -16.1423 -5.98186 16.0597
rtibia 28.6546
rfoot 12.9064 0.423362
rtoes 30.3945
lfemur -14.9055 6.06739 -20.4143
ltibia 22.5408
lfoot 12.7809 13.3231
ltoes 39.25
338
root 0.231763 18.5301 -6.96706 0.109203 6.48439 0.784799
lowerback -0.0365571 -0.0185378 -0.771861
upperback 2.57061 -0.0729903 2.78716
thorax 2.66614 -0.0877154 3.30092
lowerneck -5.42668 -1.16416 -3.86867
upperneck 35.5716 -1.13823 0.775314
head 12.7575 -0.861643 0.864666
rclavicle 6.95746e-016 -4.6118e-014
rhumerus -4.74544 4.78828 -83.2643
rradius 57.4289
rwrist 19.9838
rhand -22.2819 -16.9991
rfingers 7.12502
rthumb 4.13657 -46.9387
lclavicle 6.95746e-016 -4.6118e-014
lhumerus -0.134446 -29.6737 71.3641
lradius 70.0839
lwrist 37.2944
lhand -22.7296 -12.5684
lfingers 7.12502
lthumb 3.70418 17.3791
rfemur -15.9356 -6.02645 16.2056
rtibia 30.3087
rfoot 7.34266 2.4364
rtoes 24.7683
lfemur -15.0039 6.06362 -20.2801
ltibia 24.5875
lfoot 4.85752 12.0011
ltoes 34.9115
339
root 0.222421 18.1761 -6.88317 -0.138155 6.61066 0.697672
lowerback -0.0267278 -0.110135 -0.834051
upperback 2.25936 -0.189749 2.84799
thorax 2.34765 -0.141819 3.39496
lowerneck -5.48335 -1.09547 -3.94387
upperneck 35.654 -1.02612 0.785224
head 12.803 -0.822297 0.89541
rclavicle -1.37161e-014 -2.46493e-014
rhumerus -5.49744 4.56112 -83.2435
rradius 57.6519
rwrist 20.406
rhand -22.3708 -17.0349
rfingers 7.12502
rthumb 4.0507 -46.9761
lclavicle -1.37161e-014 -2.46493e-014
lhumerus -1.18134 -28.7264 71.0484
lradius 70.4687
lwrist 36.7735
lhand -22.7978 -12.719
lfingers 7.12502
lthumb 3.63835 17.2297
rfemur -15.7988 -6.06829 16.3578
rtibia 32.2587
rfoot 0.701832 2.92389
rtoes 15.6232
lfemur -15.2176 6.04157 -20.129
ltibia 27.0537
lfoot -0.905611 7.82176
ltoes 34.5679
340
root 0.21114 17.8403 -6.81367 -0.484884 6.75861 0.605684
lowerback 0.228079 -0.168456 -0.864279
upperback 2.03799 -0.261828 2.8789
thorax 1.9814 -0.172586 3.44213
lowerneck -5.77285 -1.0574 -3.93534
upperneck 35.8583 -0.958833 0.785228
head 12.9517 -0.793574 0.902161
rclavicle -4.82053e-015 -7.95139e-015
rhumerus -6.07314 4.03069 -83.2572
rradius 57.6764
rwrist 20.958
rhand -22.5566 -17.1902
rfingers 7.12502
rthumb 3.8713 -47.1348
lclavicle -4.82053e-015 -7.95139e-015
lhumerus -2.06421 -27.6547 70.7691
lradius 70.6357
lwrist 36.1949
lhand -22.9804 -12.8678
lfingers 7.12502
lthumb 3.46207 17.0839
rfemur -15.7151 -6.0878 16.5062
rtibia 34.3898
rfoot -5.87544 1.65164
rtoes 7.08521
lfemur -15.5169 6.00062 -19.9681
ltibia 29.781
lfoot -3.89422 2.41328
ltoes 39.8139
341
root 0.198669 17.532 -6.75814 -0.939763 6.90734 0.46546
lowerback 0.725648 -0.187207 -0.813385
upperback 1.9265 -0.281662 2.90015
thorax 1.58826 -0.176454 3.43583
lowerneck -6.32246 -1.05118 -3.85581
upperneck 36.1979 -0.931127 0.762905
head 13.2179 -0.776263 0.882933
rclavicle 9.44227e-015 2.06736e-014
rhumerus -6.46526 3.19417 -83.27
rradius 57.4577
rwrist 21.5827
rhand -22.8243 -17.5192
rfingers 7.12502
rthumb 3.61281 -47.4683
lclavicle 9.44227e-015 2.06736e-014
lhumerus -2.81731 -26.4096 70.5888
lradius 70.5402
lwrist 35.5038
lhand -23.3134 -13.0099
lfingers 7.12502
lthumb 3.14047 16.9467
rfemur -15.7113 -6.11032 16.703
rtibia 36.6286
rfoot -11.2377 -1.67383
rtoes 0.466512
lfemur -15.913 5.9654 -19.7687
ltibia 32.642
lfoot -6.61548 -1.72756
ltoes 41.8573
342
root 0.185922 17.2621 -6.71649 -1.37502 7.03333 0.284146
lowerback 1.33419 -0.171075 -0.696019
upperback 1.89005 -0.254411 2.92948
thorax 1.207 -0.156948 3.40148
lowerneck -7.06555 -1.0679 -3.75777
upperneck 36.6229 -0.930833 0.736358
head 13.5696 -0.769127 0.855203
rclavicle 1.59525e-014 3.02153e-014
rhumerus -6.72017 2.08891 -83.2481
rradius 56.9594
rwrist 22.2249
rhand -23.1325 -18.0462
rfingers 7.12502
rthumb 3.31516 -48.0002
lclavicle 1.59525e-014 3.02153e-014
lhumerus -3.52692 -24.9353 70.5797
lradius 70.1446
lwrist 34.6779
lhand -23.8294 -13.1515
lfingers 7.12502
lthumb 2.64216 16.8118
rfemur -16.0127 -6.15336 16.947
rtibia 38.9963
rfoot -15.5348 -3.05952
rtoes 0.145163
lfemur -16.5613 5.92274 -19.5609
ltibia 35.5746
lfoot -10.0115 -4.10017
ltoes 36.0836
343
root 0.174572 17.0284 -6.68829 -1.72101 7.10623 0.0672918
lowerback 1.94238 -0.127941 -0.521846
upperback 1.92535 -0.190169 2.98731
thorax 0.897692 -0.120169 3.36417
lowerneck -7.9318 -1.0949 -3.6653
upperneck 37.0468 -0.935438 0.695011
head 13.955 -0.766221 0.821275
rclavicle 2.24627e-014 -8.74653e-015
rhumerus -6.87913 0.768616 -83.1635
rradius 56.1612
rwrist 22.8118
rhand -23.431 -18.7431
rfingers 7.12502
rthumb 3.02688 -48.7014
lclavicle 2.24627e-014 -8.74653e-015
lhumerus -4.24672 -23.1663 70.7766
lradius 69.409
lwrist 33.7145
lhand -24.5393 -13.3302
lfingers 7.12502
lthumb 1.9565 16.6405
rfemur -16.7384 -6.25839 17.2475
rtibia 41.5605
rfoot -18.8431 -4.37824
rtoes 0.16215
lfemur -17.5436 5.85026 -19.3744
ltibia 38.58
lfoot -14.9928 -1.49292
ltoes 12.0681
